<?xml version="1.0" encoding="UTF-8" standalone="no"?>
<!-- Created with Inkscape (http://www.inkscape.org/) -->

<svg
   xmlns:dc="http://purl.org/dc/elements/1.1/"
   xmlns:cc="http://creativecommons.org/ns#"
   xmlns:rdf="http://www.w3.org/1999/02/22-rdf-syntax-ns#"
   xmlns:svg="http://www.w3.org/2000/svg"
   xmlns="http://www.w3.org/2000/svg"
   xmlns:sodipodi="http://sodipodi.sourceforge.net/DTD/sodipodi-0.dtd"
   xmlns:inkscape="http://www.inkscape.org/namespaces/inkscape"
   width="744.09448819"
   height="1052.3622047"
   id="svg2"
   version="1.1"
   inkscape:version="0.48.1 "
   sodipodi:docname="logo.svg">
  <defs
     id="defs4" />
  <sodipodi:namedview
     id="base"
     pagecolor="#ffffff"
     bordercolor="#666666"
     borderopacity="1.0"
     inkscape:pageopacity="0.0"
     inkscape:pageshadow="2"
     inkscape:zoom="0.7"
     inkscape:cx="667.74052"
     inkscape:cy="706.27058"
     inkscape:document-units="px"
     inkscape:current-layer="layer1"
     showgrid="false"
     showguides="true"
     inkscape:guide-bbox="true"
     inkscape:window-width="1334"
     inkscape:window-height="857"
     inkscape:window-x="66"
     inkscape:window-y="87"
     inkscape:window-maximized="0"
     inkscape:snap-global="false">
    <sodipodi:guide
       orientation="1,0"
       position="-735,446.42857"
       id="guide3031" />
    <sodipodi:guide
       orientation="1,0"
       position="-595.71429,365"
       id="guide3033" />
    <sodipodi:guide
       orientation="0,1"
       position="-705.17857,558.21429"
       id="guide3047" />
    <sodipodi:guide
       orientation="0,1"
       position="-355.35714,462.5"
       id="guide3077" />
  </sodipodi:namedview>
  <metadata
     id="metadata7">
    <rdf:RDF>
      <cc:Work
         rdf:about="">
        <dc:format>image/svg+xml</dc:format>
        <dc:type
           rdf:resource="http://purl.org/dc/dcmitype/StillImage" />
        <dc:title></dc:title>
      </cc:Work>
    </rdf:RDF>
  </metadata>
  <g
     inkscape:label="Layer 1"
     inkscape:groupmode="layer"
     id="layer1">
    <path
       sodipodi:type="arc"
       style="fill:#800000;fill-opacity:1;stroke:none"
       id="path3051"
       sodipodi:cx="-665.17859"
       sodipodi:cy="563.9693"
       sodipodi:rx="69.464287"
       sodipodi:ry="69.464287"
       d="m -595.7143,563.9693 a 69.464287,69.464287 0 1 1 -138.92858,0 69.464287,69.464287 0 1 1 138.92858,0 z"
       transform="translate(561.42857,-101.42857)" />
    <text
       xml:space="preserve"
       style="font-size:164.38189697px;font-style:normal;font-variant:normal;font-weight:normal;font-stretch:normal;line-height:125%;letter-spacing:0px;word-spacing:0px;fill:#000000;fill-opacity:1;stroke:none;font-family:Lato;-inkscape-font-specification:Lato"
       x="-145.09383"
       y="504.1705"
       id="text3040"
       sodipodi:linespacing="125%"><tspan
         sodipodi:role="line"
         id="tspan3042"
         x="-145.09383"
         y="504.1705">x</tspan></text>
    <text
       xml:space="preserve"
       style="font-size:137.2922821px;font-style:normal;font-weight:normal;line-height:125%;letter-spacing:0px;word-spacing:0px;fill:#0088aa;fill-opacity:1;stroke:none;font-family:Sans"
       x="368.17914"
       y="535.6629"
       id="text3019"
       sodipodi:linespacing="125%"
       inkscape:export-filename="C:\cygwin\home\andrew.barilla\workspace\exit66jukebox\etc\graphics\logo.png"
       inkscape:export-xdpi="90"
       inkscape:export-ydpi="90"><tspan
         sodipodi:role="line"
         x="368.17914"
         y="535.6629"
         id="tspan3023"
         style="font-style:normal;font-variant:normal;font-weight:normal;font-stretch:normal;text-align:center;text-anchor:middle;fill:#0088aa;fill-opacity:1;font-family:Lato;-inkscape-font-specification:Lato">jukebox</tspan></text>
    <text
       xml:space="preserve"
       style="font-size:174.67121887px;font-style:normal;font-variant:normal;font-weight:normal;font-stretch:normal;line-height:125%;letter-spacing:0px;word-spacing:0px;fill:#4d4d4d;fill-opacity:1;stroke:none;font-family:Lato;-inkscape-font-specification:Lato"
       x="119.59082"
       y="73.221825"
       id="text3027"
       sodipodi:linespacing="125%"
       inkscape:export-filename="C:\cygwin\home\andrew.barilla\workspace\exit66jukebox\etc\graphics\logo.png"
       inkscape:export-xdpi="90"
       inkscape:export-ydpi="90"><tspan
         sodipodi:role="line"
         id="tspan3029"
         x="119.59082"
         y="73.221825">exit66</tspan></text>
    <g
       id="g3088"
       transform="matrix(3.432307,0,0,3.432307,1981.5799,-1603.5395)"
       inkscape:export-filename="C:\cygwin\home\andrew.barilla\workspace\exit66jukebox\etc\graphics\logo.png"
       inkscape:export-xdpi="90"
       inkscape:export-ydpi="90">
      <path
         id="path3051-3"
         d="m -470.71875,494.3125 c -38.36407,0 -69.46875,31.10468 -69.46875,69.46875 0,9.22417 1.82924,18.04075 5.09375,26.09375 l 128.75,0 c 3.26451,-8.053 5.09375,-16.86958 5.09375,-26.09375 0,-38.36407 -31.10468,-69.46875 -69.46875,-69.46875 z"
         style="fill:#cccccc;fill-opacity:1;stroke:none"
         inkscape:connector-curvature="0" />
      <g
         id="text3040-2"
         style="font-size:164.38189697px;font-style:normal;font-variant:normal;font-weight:normal;font-stretch:normal;line-height:125%;letter-spacing:0px;word-spacing:0px;fill:#4d4d4d;fill-opacity:1;stroke:none;font-family:Lato;-inkscape-font-specification:Lato">
        <path
           id="path3082"
           d="m -508.59375,522.15625 28,40.59375 -18.53125,27.125 15.34375,0 10.84375,-15.84375 c 0.76582,-1.26079 1.33411,-2.69264 1.71875,-4.28125 l 12.9375,20.125 16.1875,0 -18.75,-27.9375 28.03125,-39.78125 -13.5,0 c -0.82278,8e-5 -1.51576,0.25229 -2.0625,0.71875 -0.54687,0.46662 -1.07659,1.07797 -1.625,1.84375 L -467.9375,551 c -0.92977,1.53511 -1.63008,3.09334 -2.125,4.625 l -20.375,-31.25 c -0.43813,-0.71227 -0.9203,-1.24198 -1.46875,-1.625 -0.5485,-0.38284 -1.4523,-0.59367 -2.65625,-0.59375 l -14.03125,0 z"
           style="fill:#4d4d4d;fill-opacity:1"
           inkscape:connector-curvature="0" />
      </g>
    </g>
    <g
       id="g3107"
       inkscape:export-filename="C:\cygwin\home\andrew.barilla\workspace\exit66jukebox\web\images\bgimage.png"
       inkscape:export-xdpi="90"
       inkscape:export-ydpi="90">
      <path
         inkscape:connector-curvature="0"
         style="fill:#e6e6e6;fill-opacity:1;stroke:none"
         d="m 371.38244,565.06088 c -156.6923,0 -283.734798,127.04241 -283.734798,283.73469 0,37.6748 7.4713,73.6848 20.804698,106.5761 l 525.86013,0 c 13.3334,-32.8913 20.80466,-68.9013 20.80466,-106.5761 0,-156.69228 -127.04241,-283.73469 -283.73469,-283.73469 z"
         id="path3095" />
      <g
         transform="matrix(4.0843505,0,0,4.0843505,2293.9628,-1453.8846)"
         style="font-size:164.38189697px;font-style:normal;font-variant:normal;font-weight:normal;font-stretch:normal;line-height:125%;letter-spacing:0px;word-spacing:0px;fill:#ffffff;fill-opacity:1;stroke:none;font-family:Lato;-inkscape-font-specification:Lato"
         id="g3097">
        <path
           inkscape:connector-curvature="0"
           style="fill:#ffffff;fill-opacity:1"
           d="m -508.59375,522.15625 28,40.59375 -18.53125,27.125 15.34375,0 10.84375,-15.84375 c 0.76582,-1.26079 1.33411,-2.69264 1.71875,-4.28125 l 12.9375,20.125 16.1875,0 -18.75,-27.9375 28.03125,-39.78125 -13.5,0 c -0.82278,8e-5 -1.51576,0.25229 -2.0625,0.71875 -0.54687,0.46662 -1.07659,1.07797 -1.625,1.84375 L -467.9375,551 c -0.92977,1.53511 -1.63008,3.09334 -2.125,4.625 l -20.375,-31.25 c -0.43813,-0.71227 -0.9203,-1.24198 -1.46875,-1.625 -0.5485,-0.38284 -1.4523,-0.59367 -2.65625,-0.59375 l -14.03125,0 z"
           id="path3099" />
      </g>
    </g>
  </g>
</svg>
